<mxfile host="app.diagrams.net" modified="2024-06-15T14:26:15.106Z" agent="Mozilla/5.0 (Windows NT 10.0; Win64; x64) AppleWebKit/537.36 (KHTML, like Gecko) Chrome/125.0.0.0 Safari/537.36" etag="zPV2_qjIYctAd6lkDyBb" version="24.5.4" type="github">
  <diagram name="Page-1" id="aRzWIqIFv2-Xz2Iu4Ntp">
    <mxGraphModel dx="880" dy="506" grid="1" gridSize="10" guides="1" tooltips="1" connect="1" arrows="1" fold="1" page="1" pageScale="1" pageWidth="850" pageHeight="1100" math="0" shadow="0">
      <root>
        <mxCell id="0" />
        <mxCell id="1" parent="0" />
        <mxCell id="-e87PkYkPOGHZXXSn24K-1" value="" style="rounded=1;whiteSpace=wrap;html=1;" parent="1" vertex="1">
          <mxGeometry x="250" y="140" width="240" height="220" as="geometry" />
        </mxCell>
        <mxCell id="-e87PkYkPOGHZXXSn24K-2" value="" style="rounded=1;whiteSpace=wrap;html=1;" parent="1" vertex="1">
          <mxGeometry x="260" y="160" width="220" height="30" as="geometry" />
        </mxCell>
        <mxCell id="-e87PkYkPOGHZXXSn24K-3" value="" style="rounded=1;whiteSpace=wrap;html=1;" parent="1" vertex="1">
          <mxGeometry x="260" y="210" width="220" height="30" as="geometry" />
        </mxCell>
        <mxCell id="-e87PkYkPOGHZXXSn24K-4" value="" style="rounded=1;whiteSpace=wrap;html=1;" parent="1" vertex="1">
          <mxGeometry x="260" y="260" width="220" height="30" as="geometry" />
        </mxCell>
        <mxCell id="-e87PkYkPOGHZXXSn24K-5" value="" style="rounded=1;whiteSpace=wrap;html=1;" parent="1" vertex="1">
          <mxGeometry x="260" y="310" width="220" height="30" as="geometry" />
        </mxCell>
        <mxCell id="-e87PkYkPOGHZXXSn24K-8" style="edgeStyle=orthogonalEdgeStyle;rounded=0;orthogonalLoop=1;jettySize=auto;html=1;entryX=0;entryY=0.5;entryDx=0;entryDy=0;dashed=1;" parent="1" source="-e87PkYkPOGHZXXSn24K-7" target="-e87PkYkPOGHZXXSn24K-1" edge="1">
          <mxGeometry relative="1" as="geometry" />
        </mxCell>
        <mxCell id="-e87PkYkPOGHZXXSn24K-7" value="&lt;font face=&quot;Helvetica&quot; style=&quot;font-size: 17px;&quot; color=&quot;#ffffff&quot;&gt;&lt;b style=&quot;&quot;&gt;CLI&lt;/b&gt;&lt;/font&gt;" style="ellipse;whiteSpace=wrap;html=1;aspect=fixed;fillColor=#80FF00;strokeColor=#CCFF99;" parent="1" vertex="1">
          <mxGeometry x="90" y="210" width="80" height="80" as="geometry" />
        </mxCell>
        <mxCell id="-e87PkYkPOGHZXXSn24K-10" value="&lt;font style=&quot;font-size: 20px;&quot;&gt;KUBECTL&lt;/font&gt;" style="text;strokeColor=none;fillColor=none;html=1;fontSize=24;fontStyle=1;verticalAlign=middle;align=center;" parent="1" vertex="1">
          <mxGeometry x="80" y="160" width="100" height="40" as="geometry" />
        </mxCell>
      </root>
    </mxGraphModel>
  </diagram>
</mxfile>
